<?xml version="1.0" standalone="no"?><!DOCTYPE svg PUBLIC "-//W3C//DTD SVG 1.1//EN" "http://www.w3.org/Graphics/SVG/1.1/DTD/svg11.dtd"><svg class="icon" width="200px" height="200.00px" viewBox="0 0 1024 1024" version="1.1" xmlns="http://www.w3.org/2000/svg"><path d="M510.208 510.1568m-450.816 0a450.816 450.816 0 1 0 901.632 0 450.816 450.816 0 1 0-901.632 0Z" fill="#8486F8" /><path d="M512.6656 466.2272l265.984-153.2416c-1.0752-0.7168-2.1504-1.3824-3.2768-2.048l-222.3104-129.1264a80.46592 80.46592 0 0 0-80.4352-0.2048l-222.976 128c-1.1264 0.6144-2.2016 1.3312-3.2256 1.9968l266.24 154.624zM548.8128 836.6592c0.8704-0.4608 1.6896-0.8704 2.56-1.3312l222.976-128c24.9344-14.2848 40.2944-40.8064 40.3968-69.5296l0.6656-257.1264c0-1.28-0.0512-2.5088-0.1024-3.7888l-266.4448 153.4976v306.2784zM475.1872 529.664L209.408 375.2448c-0.0512 1.28-0.1536 2.56-0.1536 3.8912l-0.6656 257.0752c-0.0512 28.7232 15.2064 55.296 40.0384 69.7344l222.3104 129.1264c1.3824 0.8192 2.7648 1.536 4.1984 2.2528v-307.6608z" fill="#FFFFFF" /></svg>