<?xml version="1.0" standalone="no"?><!DOCTYPE svg PUBLIC "-//W3C//DTD SVG 1.1//EN" "http://www.w3.org/Graphics/SVG/1.1/DTD/svg11.dtd"><svg class="icon" width="200px" height="200.00px" viewBox="0 0 1024 1024" version="1.1" xmlns="http://www.w3.org/2000/svg"><path d="M511.6928 518.7584m-450.816 0a450.816 450.816 0 1 0 901.632 0 450.816 450.816 0 1 0-901.632 0Z" fill="#3CD38E" /><path d="M528.5888 226.7648c-63.3344-20.48-124.5696 2.7648-166.8096 27.6992-7.424-24.5248-30.4128-41.728-56.6272-38.4-23.6032 2.9696-42.8544 23.1424-45.8752 48.1792-2.6112 21.8624 6.7072 41.6256 21.9648 53.0432v509.696c0 17.6128 12.8 32.9728 29.44 33.536 17.2032 0.5632 31.2832-14.08 31.2832-32.1536v-174.3872c171.5712-113.1008 275.9168-33.9968 348.8256-16.2304 59.4944 14.4896 110.2336-8.7552 129.536-19.6608 5.1712-2.9184 8.3456-8.6528 8.3456-14.848V287.1808c0-12.6464-12.544-20.5312-23.1936-14.9504-85.8624 45.2096-171.6224-11.4176-276.8896-45.4656z m141.1584 180.6848c-25.6-5.7344-59.2896-17.8176-100.4544-42.24-72.3968-42.9056-135.4752-2.56-138.0864-0.8192-13.8752 9.1136-32.2048 4.7104-40.9088-9.984-8.704-14.6432-4.6592-33.9456 9.1136-43.264 3.84-2.56 94.8224-62.6688 198.912-0.9216 36.1472 21.4016 64.2048 31.232 83.8144 35.6352 13.6704 3.072 23.3472 15.9744 23.3472 30.7712-0.0512 19.9168-17.3056 34.9184-35.7376 30.8224z" fill="#FFFFFF" /></svg>