<?xml version="1.0" standalone="no"?><!DOCTYPE svg PUBLIC "-//W3C//DTD SVG 1.1//EN" "http://www.w3.org/Graphics/SVG/1.1/DTD/svg11.dtd"><svg class="icon" width="200px" height="200.00px" viewBox="0 0 1024 1024" version="1.1" xmlns="http://www.w3.org/2000/svg"><path d="M510.208 520.96m-450.816 0a450.816 450.816 0 1 0 901.632 0 450.816 450.816 0 1 0-901.632 0Z" fill="#FFBC42" /><path d="M506.9824 179.5072c-145.4592 2.048-265.9328 118.7328-272.2816 264.0896-5.2224 119.1424 65.0752 222.5152 166.9632 266.4448v24.1152c0 11.1616 9.0624 20.1728 20.1728 20.1728h178.1248c11.1616 0 20.1728-9.0624 20.1728-20.1728v-24.1152c98.3552-42.3424 167.2704-140.1344 167.2704-254.0032 0.0512-154.112-125.9008-278.7328-280.4224-276.5312z m73.728 355.9424h-35.8912v94.5152a33.8432 33.8432 0 0 1-67.6864 0v-94.5152h-35.8912a33.8432 33.8432 0 0 1 0-67.6864h139.4688a33.8432 33.8432 0 0 1 0 67.6864zM606.0032 787.0976H415.8976a33.8432 33.8432 0 0 0 0 67.6864h190.1056a33.8432 33.8432 0 0 0 0-67.6864z" fill="#FFFFFF" /></svg>