<?xml version="1.0" standalone="no"?><!DOCTYPE svg PUBLIC "-//W3C//DTD SVG 1.1//EN" "http://www.w3.org/Graphics/SVG/1.1/DTD/svg11.dtd"><svg class="icon" width="200px" height="200.00px" viewBox="0 0 1024 1024" version="1.1" xmlns="http://www.w3.org/2000/svg"><path d="M511.744 513.1264m-450.816 0a450.816 450.816 0 1 0 901.632 0 450.816 450.816 0 1 0-901.632 0Z" fill="#FF5C64" /><path d="M815.9232 430.2336c0-112.9984-87.5008-204.5952-195.3792-204.5952-23.8592 0-46.6944 4.5056-67.84 12.6976 53.7088 45.056 88.1152 114.2784 88.1152 191.9488s-34.4064 146.8416-88.1152 191.9488c7.3728 2.8672 14.9504 5.2224 22.7328 7.168l-26.368 31.0784c-6.656 8.704-1.9968 23.7568 7.3728 23.7568h41.0624v18.8416c0 26.3168 21.1968 55.04 29.3376 63.8976 3.1744 3.4816 5.2736 6.2464 6.6048 8.6528a30.0032 30.0032 0 0 0-25.088 28.9792 30.03904 30.03904 0 0 0 29.3888 30.72h0.8192c11.8272 0 29.8496-5.4784 42.4448-17.7664 9.472-9.2672 14.6432-21.3504 14.6432-34.0992 0-27.3408-14.08-45.7216-24.6272-57.1904-5.9904-6.5024-12.6464-18.8416-13.4144-23.552v-18.432h37.6832c9.3696 0 14.0288-15.0016 7.3728-23.7568l-28.2624-33.536c81.664-24.576 141.5168-103.3216 141.5168-196.7616z" fill="#FFFFFF" /><path d="M601.344 430.2336c0-112.9984-87.5008-204.5952-195.3792-204.5952S210.5856 317.2352 210.5856 430.2336c0 96.7168 64.1536 177.7664 150.272 199.0656l-26.368 31.1296c-6.656 8.704-1.9968 23.7568 7.3728 23.7568h41.0624v18.8416c0 26.3168 21.1968 55.04 29.3376 63.8976 3.1744 3.4816 5.2736 6.2464 6.6048 8.6528a30.0032 30.0032 0 0 0-25.088 28.9792 30.03904 30.03904 0 0 0 29.3888 30.72h0.8192c11.8272 0 29.8496-5.4784 42.4448-17.7664 9.472-9.2672 14.6432-21.3504 14.6432-34.0992 0-27.3408-14.08-45.7216-24.6272-57.1904-5.9904-6.5024-12.6464-18.8416-13.4144-23.552v-18.432h37.6832c9.3696 0 14.0288-15.0016 7.3728-23.7568l-28.2624-33.536c81.7152-24.5248 141.5168-103.2704 141.5168-196.7104zM337.5104 372.9408c-1.024 1.0752-24.6272 26.88-7.5264 82.3296a30.08 30.08 0 0 1-28.7232 38.912c-12.8512 0-24.7296-8.2944-28.7232-21.1968-26.2656-85.248 13.1584-132.6592 21.2992-141.312a30.08 30.08 0 0 1 42.496-1.1776 29.97248 29.97248 0 0 1 1.1776 42.4448z" fill="#FFFFFF" /></svg>